<svg xmlns="http://www.w3.org/2000/svg" height="800" width="1200" viewBox="-2.89968 -7.877475 25.13056 47.26485"><path d="M16.5118.7868h2.0271V27.816H.7899V22.32z" fill="#fff200"/><path d="M.7806.7805L.7898 22.275 16.511.787z" fill="#ed1d24"/><path d="M18.5506.365H.365v27.8616h18.6013V.365z" fill="none" stroke="#fff" stroke-width=".7299"/><path d="M1.1455 27.8111V.7806l-.3648.3647h17.7698l-.3648-.3647V27.811l.3648-.3648H.7807zm17.77 0V.4158H.4157v27.7601h18.4999z"/><path d="M16.2467 1.149L.4517 22.7217l1.8356.0836L16.108 4.0622z" fill="#0095da"/><path d="M14.2917 13.8935L7.0337 9.099l7.8305-3.9218zm-.4477 7.977l-5.3637.001 2.6945-4.6796z"/><path d="M9.8776 24.505c.012-1.1038 2.4448-1.0138 3.4477 0z" fill="#ed1d24"/><path d="M1.8972 30.1616h-.0095l-.3916.6505h.8445zm-.599.9352l-.2925.3774H.2744l1.3868-1.8372h.538l1.3494 1.8372h-.7409l-.2737-.3774zm4.6173.0735h.981v.3038H5.222v-1.7897h.6936zm3.8204.3037h-.6936v-1.4855h-.7168v-.304h2.1276v.304h-.7172zm3.1273-1.4856v.394h1.1039v.3038h-1.1039v.484h1.1462v.3037h-1.8397v-1.7896h1.8397v.304zm3.0701-.3514h.5002l1.8726 1.251h.0095v-1.2037h.6935v1.8256h-.5002l-1.8729-1.251h-.0092v1.215h-.6935z"/></svg>